<svg version="1.2" xmlns="http://www.w3.org/2000/svg" viewBox="0 0 58 57" width="58" height="57">
	<title></title>
	<style>
		.s0 { fill: #5373fd } 
	</style>
	<path id="" class="s0" d="m57.3 53.8l-3 3-16.3-16.3q-1.4 1.2-3.1 2.2-1.7 1-3.5 1.7-1.8 0.7-3.9 1-2 0.4-4 0.4-4.8 0-8.9-1.8-4.2-1.9-7.3-5-3.1-3-4.8-7.2-1.8-4.1-1.8-8.8 0-4.8 1.8-8.9 1.7-4.2 4.8-7.3 3.1-3 7.3-4.8 4.1-1.8 8.9-1.8 4.7 0 8.8 1.8 4.2 1.8 7.2 4.8 3.1 3.1 5 7.3 1.8 4.1 1.8 8.9 0 2-0.4 4-0.3 2.1-1 3.9-0.7 1.8-1.7 3.5-1 1.7-2.2 3.1l16.3 16.3zm-54.2-30.8q0 4.2 1.6 7.9 1.5 3.6 4.3 6.5 2.8 2.8 6.6 4.4 3.7 1.6 7.9 1.6 4.2 0 7.9-1.6 3.6-1.6 6.5-4.4 2.8-2.9 4.4-6.5 1.6-3.7 1.6-7.9 0-4.2-1.6-7.9-1.6-3.8-4.4-6.6-2.9-2.8-6.5-4.3-3.7-1.6-7.9-1.6-4.2 0-7.9 1.6-3.8 1.5-6.6 4.3-2.8 2.8-4.3 6.6-1.6 3.7-1.6 7.9z"/>
</svg>