<svg version="1.2" xmlns="http://www.w3.org/2000/svg" viewBox="0 0 60 61" width="60" height="61">
	<title></title>
	<style>
		.s0 { fill: #ff6363 } 
	</style>
	<path id="" class="s0" d="m30 0.5q6.2 0 11.7 2.4 5.5 2.3 9.5 6.4 4.1 4 6.4 9.5 2.4 5.5 2.4 11.7 0 6.2-2.4 11.7-2.3 5.5-6.4 9.5-4 4.1-9.5 6.4-5.5 2.4-11.7 2.4-6.2 0-11.7-2.4-5.5-2.3-9.5-6.4-4.1-4-6.4-9.5-2.4-5.5-2.4-11.7 0-6.2 2.4-11.7 2.3-5.5 6.4-9.5 4-4.1 9.5-6.4 5.5-2.4 11.7-2.4zm0 57.6q5.8 0 10.8-2.2 4.9-2.2 8.7-5.9 3.7-3.7 5.9-8.7 2.2-5 2.2-10.8 0-5.8-2.2-10.8-2.2-4.9-5.9-8.7-3.8-3.7-8.7-5.9-5-2.2-10.8-2.2-5.8 0-10.8 2.2-5 2.2-8.7 5.9-3.7 3.8-5.9 8.7-2.2 5-2.2 10.8 0 5.8 2.2 10.8 2.2 5 5.9 8.7 3.7 3.7 8.7 5.9 5 2.2 10.8 2.2zm15-38.3q0.5-0.5 1.2-0.6 0.8 0.1 1.4 0.6 0.4 0.6 0.4 1.3 0 0.8-0.6 1.2l-20.5 20q-0.1 0.3-0.5 0.4-0.3 0-0.6 0-0.4 0-0.8 0-0.3-0.1-0.5-0.4l-8-8q-0.6-0.6-0.6-1.3 0-0.8 0.6-1.2 0.4-0.6 1.2-0.6 0.8 0 1.3 0.6l6.8 6.7 19.2-18.7z"/>
</svg>