<svg version="1.2" xmlns="http://www.w3.org/2000/svg" viewBox="0 0 62 59" width="62" height="59">
	<title></title>
	<style>
		.s0 { fill: #00a2ff } 
	</style>
	<path id="" class="s0" d="m61.6 28.7q0 0.9-0.3 1.8-0.3 0.8-0.8 1.5-0.6 0.7-1.3 1.2-0.7 0.4-1.6 0.7 0.5 0.7 0.8 1.4 0.2 0.8 0.2 1.8 0 0.8-0.2 1.7-0.3 0.8-0.8 1.5-0.5 0.6-1.2 1.1-0.7 0.5-1.4 0.8 0.4 0.7 0.7 1.5 0.3 0.8 0.3 1.7 0 1-0.3 1.7-0.3 0.8-0.7 1.5-0.6 0.7-1.3 1.2-0.7 0.5-1.5 0.7 0.5 0.7 0.8 1.4 0.3 0.8 0.3 1.8 0 1-0.4 2-0.5 0.9-1.2 1.6-0.8 0.7-1.8 1.2-1 0.4-2.1 0.4h-18.6q-0.9 0-2.2-0.3-1.3-0.3-2.7-0.8-1.4-0.5-2.8-1.1-1.4-0.6-2.8-1.2-1.7-0.7-3.3-1.4-1.6-0.7-2.3-0.7h-12.8v-27.4l1.1-0.2q8 0 11 0 1.2 0 2.3-0.2 1-0.3 2.2-1.2 1.2-0.7 2.8-1.9 1.7-1.3 3.9-3.1 4.4-3.7 5.1-9.2 0.8-5.4 0.8-6.3 0-0.8 0.4-1.6 0.5-0.8 1.2-1.2 0.7-0.6 1.4-0.8 0.8-0.2 1.5-0.2 1.1 0 2.3 0.3 1.1 0.3 2.1 1.3 1 0.9 1.5 2.6 0.6 1.6 0.6 4.2 0 2.4-0.4 4.6-0.3 2.2-0.9 4.2-0.4 1.9-1 3.6-0.7 1.6-1.1 2.7h19.1q1.3 0 2.2 0.3 0.9 0.4 1.8 1.1 0.7 0.7 1 1.6 0.4 0.9 0.4 2.1zm-5.4 2.9q0.7 0 1.3-0.2 0.6-0.2 0.9-0.6 0.4-0.5 0.7-0.9 0.2-0.5 0.2-1.2 0-1.2-0.8-2-0.9-0.9-2.3-0.9h-8.4q0 0.2 0 0h-14.5l0.9-1.6q3.9-9.7 3.9-15.7 0-4.6-1.5-5.4-1.6-0.7-2.6-0.7-0.4 0-1.2 0.4-0.9 0.4-0.9 1.1 0 0.9-0.1 2.8-0.2 2-0.9 4.5-0.7 2.6-2 5.2-1.3 2.7-3.7 4.7-2.4 1.9-4 3.3-1.7 1.3-3.1 2.1-1.4 0.9-2.8 1.3-1.4 0.4-2.9 0.4-1.2 0-2.5 0-1.3 0-2.7 0-1.3 0-2.5 0-1.2 0-2 0v22.8h10.4q1 0 2.6 0.6 1.6 0.7 4 1.7 1.1 0.5 2.4 1.2 1.4 0.6 2.6 1 1.4 0.4 2.6 0.8 1.1 0.3 1.9 0.3h15.7 2.9q0.7 0 1.3-0.2 0.5-0.3 1-0.7 0.4-0.3 0.6-0.9 0.2-0.5 0.2-1.1 0-0.7-0.2-1.2-0.2-0.5-0.6-0.9-0.5-0.4-1-0.7-0.6-0.2-1.3-0.2h-0.3v-2.4h3.3q0.5 0 1.1-0.2 0.5-0.2 1-0.6 0.2-0.4 0.5-1 0.3-0.5 0.3-1.1 0-0.6-0.3-1.1-0.3-0.6-0.5-1-0.5-0.3-1-0.6-0.6-0.3-1.1-0.3h-1v-2.4h3.5q0.5 0 1.1-0.2 0.6-0.2 1-0.6 0.4-0.4 0.7-1 0.3-0.5 0.3-1.1 0-0.7-0.3-1.3-0.3-0.5-0.7-0.8-0.4-0.4-1-0.7-0.6-0.3-1.1-0.3h-1.1v-2.4h4z"/>
</svg>